<svg xmlns="http://www.w3.org/2000/svg" viewBox="0 0 10540 10540">
  <g transform="translate(0,10540) scale(1,-1)" fill="black" stroke="none">
    <path d="M4980 9542 c-57 -15 -166 -69 -375 -185 -187 -104 -1410 -782 -1630 -904 -143 -80 -284 -162 -312 -184 -70 -52 -146 -145 -189 -230 -68 -135 -65 -66 -62 -1436 l3 -1238 27 -73 c63 -174 180 -296 392 -412 l136 -75 0 -277 c0 -363 -13 -457 -86 -616 -166 -363 -558 -545 -930 -431 -179 54 -331 184 -415 354 -64 132 -69 164 -69 475 0 200 -4 293 -15 343 -43 204 -212 378 -431 443 -78 23 -236 23 -324 0 -225 -61 -411 -251 -476 -491 -22 -80 -31 -450 -15 -624 68 -731 555 -1372 1251 -1646 227 -89 443 -126 720 -125 l184 2 13 -68 c30 -162 107 -347 211 -504 76 -114 261 -298 381 -378 174 -117 374 -201 581 -243 125 -26 376 -36 506 -20 335 41 644 182 872 396 124 117 210 233 287 390 36 72 65 123 65 115 0 -27 69 -162 127 -248 63 -95 205 -248 301 -324 298 -238 724 -364 1105 -330 370 34 696 179 951 422 212 203 337 413 405 682 l27 107 224 4 c193 4 242 9 347 31 383 82 700 254 979 531 191 190 306 350 409 570 86 182 128 320 161 521 14 86 18 171 18 399 1 277 0 293 -22 365 -75 238 -227 389 -462 461 -88 27 -232 31 -320 10 -204 -49 -379 -215 -438 -415 -11 -38 -16 -134 -22 -376 -8 -359 -10 -372 -78 -505 -45 -86 -171 -217 -257 -264 -110 -62 -187 -83 -325 -88 -106 -5 -139 -2 -209 16 -317 80 -543 333 -607 681 -21 108 -29 640 -10 664 6 8 63 42 126 76 63 35 139 81 169 104 117 89 218 250 240 384 8 48 11 420 9 1292 l-3 1225 -22 65 c-30 89 -111 207 -185 274 -34 30 -118 86 -187 124 -70 39 -351 195 -626 348 -275 153 -579 321 -675 374 -96 54 -310 172 -474 264 -165 91 -325 176 -355 188 -52 20 -76 22 -306 25 -213 2 -260 0 -315 -15z m1446 -5702 c78 -378 261 -731 526 -1015 85 -91 92 -112 93 -270 0 -73 -4 -98 -23 -136 -30 -61 -105 -134 -172 -167 -48 -24 -66 -27 -150 -27 -82 1 -102 4 -150 27 -103 50 -183 154 -197 254 -3 26 -1 103 6 173 6 73 13 402 15 786 2 363 5 662 6 665 2 3 7 -33 11 -80 5 -46 21 -141 35 -210z m-2236 -398 c1 -495 4 -694 14 -773 15 -118 9 -181 -22 -253 -27 -59 -98 -128 -169 -163 -52 -25 -68 -28 -153 -28 -76 1 -105 5 -143 23 -65 29 -142 104 -171 166 -36 76 -40 129 -21 249 l18 106 59 63 c218 233 373 486 463 754 56 168 105 395 105 492 0 26 4 41 10 37 6 -4 10 -240 10 -673z"/>
  </g>
  <!-- Eyes -->
  <circle cx="4200" cy="4250" r="550" fill="white"/>
  <circle cx="6350" cy="4250" r="550" fill="white"/>
</svg>
